<mxfile host="drawio-plugin" modified="2023-12-29T06:44:56.405Z" agent="5.0 (Macintosh; Intel Mac OS X 10_15_7) AppleWebKit/537.36 (KHTML, like Gecko) Chrome/111.0.0.0 Safari/537.36" version="20.5.3" etag="f84d8AIXj0Ee23wCcOK7" type="embed"><diagram id="rQa1JWC1HuhOB4CT-rmW" name="Page-1"><mxGraphModel dx="943" dy="773" grid="1" gridSize="10" guides="1" tooltips="1" connect="1" arrows="1" fold="1" page="1" pageScale="1" pageWidth="850" pageHeight="1100" math="0" shadow="0"><root><mxCell id="0"/><mxCell id="1" parent="0"/><mxCell id="4" style="edgeStyle=orthogonalEdgeStyle;rounded=0;orthogonalLoop=1;jettySize=auto;html=1;entryX=0.5;entryY=0;entryDx=0;entryDy=0;" edge="1" parent="1" source="2" target="3"><mxGeometry relative="1" as="geometry"><Array as="points"><mxPoint x="345" y="120"/><mxPoint x="110" y="120"/></Array></mxGeometry></mxCell><mxCell id="6" style="edgeStyle=orthogonalEdgeStyle;rounded=0;orthogonalLoop=1;jettySize=auto;html=1;" edge="1" parent="1" source="2" target="5"><mxGeometry relative="1" as="geometry"><Array as="points"><mxPoint x="345" y="120"/><mxPoint x="200" y="120"/></Array></mxGeometry></mxCell><mxCell id="8" style="edgeStyle=orthogonalEdgeStyle;rounded=0;orthogonalLoop=1;jettySize=auto;html=1;" edge="1" parent="1" source="2" target="7"><mxGeometry relative="1" as="geometry"><Array as="points"><mxPoint x="345" y="120"/><mxPoint x="290" y="120"/></Array></mxGeometry></mxCell><mxCell id="2" value="场景" style="rounded=0;whiteSpace=wrap;html=1;" vertex="1" parent="1"><mxGeometry x="310" y="70" width="70" height="30" as="geometry"/></mxCell><mxCell id="3" value="全局摄像机" style="rounded=0;whiteSpace=wrap;html=1;" vertex="1" parent="1"><mxGeometry x="70" y="160" width="80" height="30" as="geometry"/></mxCell><mxCell id="5" value="轨道控制器" style="rounded=0;whiteSpace=wrap;html=1;" vertex="1" parent="1"><mxGeometry x="160" y="160" width="80" height="30" as="geometry"/></mxCell><mxCell id="7" value="平行光源" style="rounded=0;whiteSpace=wrap;html=1;" vertex="1" parent="1"><mxGeometry x="250" y="160" width="80" height="30" as="geometry"/></mxCell></root></mxGraphModel></diagram></mxfile>